# xmcd
#
# Track frame offsets:
#	150
#	31487
#	57314
#	84585
#	112566
#	134336
#	162406
#	189835
#	218500
#	239890
#	263920
#	288075
#
# Disc length: 4213 seconds
#
# Revision: 1
# Processed by: cddbd v1.5.2PL0 Copyright (c) Steve Scherf et al.
# Submitted via: audiograbber 1.83.01
#
DISCID=a210730c
DTITLE=Various Artist - X-Mix Dance 133 (July 2010)
DYEAR=2010
DGENRE=
TTITLE0=Jason Derulo - Ridin' Solo (136 BPM)
TTITLE1=Wynter Gordon - Dirty Talk (130 BPM)
TTITLE2=Reel 2 Real - The Mad Stuntman - I Like To Move It  (130 BPM)
TTITLE3=Michael Mind - Gotta Let You Go  (130 BPM)
TTITLE4=Mason - Exceeder 2010  (129 BPM)
TTITLE5=Robyn - Dancing On My Own (128 BPM)
TTITLE6=Meck - Dino - Feels Like A Prayer (128 BPM)
TTITLE7=Klaas Meets Haddaway - What Is Love 2K9  (128 BPM)
TTITLE8=Katy Perry - Snoop Dogg  - California Gurls  (128 BPM)
TTITLE9=Gaia and Luna - Give It Up  (128 BPM)
TTITLE10=Sidney Samson - Wizard Sleeve - Riverside (Let's Go)   (126 BPM)
TTITLE11=Lady Gaga - Alejandro  (125 BPM)
EXTD=
EXTT0=
EXTT1=
EXTT2=
EXTT3=
EXTT4=
EXTT5=
EXTT6=
EXTT7=
EXTT8=
EXTT9=
EXTT10=
EXTT11=
PLAYORDER=
